PathFileType	4	(X/Y/Z)	C:\Users\Basilio\Documents\Thesis Gigler\squatting_fais\c3dfiles\077\SLS_front_pre5\markers_experimental.trc
DataRate	CameraRate	NumFrames	NumMarkers	Units	OrigDataRate	OrigDataStartFrame	OrigNumFrames
200.000000	200.000000	4	60	mm	200.000000	589	1572
Frame#	Time	FHD			LBHD			RBHD			C7			T10			CLAV			LSHO			LUUPA			LMUPA			LDUPA			LLEP			LMEP			LRAD			LUL			LRFIN			RSHO			RUPA1			RMUPA			RDUPA			RLEP			RMEP			RRAD			RUL			RUFIN			LASI			RASI			USACR			LSACR			RSACR			LTHI1			LTHI2			LTHI3			LTHI4			LLFC			LMFC			LTIB1			LTIB2			LTIB3			LTIB4			LLMAL			LHEE			LMT1			LMT2			LMT5			RTHI			RTHI2			RTHI3			RTHI4			RLFC			RMFC			RTIB1			RTIB2			RTIB3			RTIB4			RLMAL			RMMAL			RHEE			RMT1			RMT2			RMT5			
		X1	Y1	Z1	X2	Y2	Z2	X3	Y3	Z3	X4	Y4	Z4	X5	Y5	Z5	X6	Y6	Z6	X7	Y7	Z7	X8	Y8	Z8	X9	Y9	Z9	X10	Y10	Z10	X11	Y11	Z11	X12	Y12	Z12	X13	Y13	Z13	X14	Y14	Z14	X15	Y15	Z15	X16	Y16	Z16	X17	Y17	Z17	X18	Y18	Z18	X19	Y19	Z19	X20	Y20	Z20	X21	Y21	Z21	X22	Y22	Z22	X23	Y23	Z23	X24	Y24	Z24	X25	Y25	Z25	X26	Y26	Z26	X27	Y27	Z27	X28	Y28	Z28	X29	Y29	Z29	X30	Y30	Z30	X31	Y31	Z31	X32	Y32	Z32	X33	Y33	Z33	X34	Y34	Z34	X35	Y35	Z35	X36	Y36	Z36	X37	Y37	Z37	X38	Y38	Z38	X39	Y39	Z39	X40	Y40	Z40	X41	Y41	Z41	X42	Y42	Z42	X43	Y43	Z43	X44	Y44	Z44	X45	Y45	Z45	X46	Y46	Z46	X47	Y47	Z47	X48	Y48	Z48	X49	Y49	Z49	X50	Y50	Z50	X51	Y51	Z51	X52	Y52	Z52	X53	Y53	Z53	X54	Y54	Z54	X55	Y55	Z55	X56	Y56	Z56	X57	Y57	Z57	X58	Y58	Z58	X59	Y59	Z59	X60	Y60	Z60	

590	2.945	-368.9168090820313	1800.363647460938	-1046.939331054688	-502.291961669922	1687.6806640625	-1120.231567382813	-508.3284606933595	1677.299926757813	-974.0541992187502	-542.8255615234376	1532.792846679688	-1064.662475585938	-507.6810607910157	1197.427490234375	-1059.97705078125	nan	nan	nan	-406.9264221191407	1550.432861328125	-1231.056884765625	-235.4554138183594	1520.630981445313	-1340.546508789063	-207.3669891357422	1552.028564453125	-1314.1513671875	-166.8887329101563	1523.45458984375	-1349.495361328125	-103.2869491577149	1536.486083984375	-1347.31787109375	-90.58538818359376	1468.748168945313	-1320.74853515625	190.1553802490235	1589.484008789063	-1239.8818359375	191.1616668701172	1599.422119140625	-1319.308959960938	285.4035034179688	1623.347900390625	-1249.147094726563	-400.7388610839845	1534.887573242188	-894.028991699219	-242.0568542480469	1510.8095703125	-784.0695800781252	-218.0733947753907	1541.358276367188	-815.198669433594	-172.849838256836	1520.046142578125	-780.5906372070315	-107.5372695922852	1533.791137695313	-788.7525634765627	-94.83053588867189	1461.50732421875	-815.9072265625002	169.5924224853516	1583.976806640625	-901.4749145507815	182.2036437988282	1602.000610351563	-825.159851074219	265.8710021972657	1612.188110351563	-908.7166137695315	-288.5670166015626	1028.246704101563	-1186.807983398438	-308.1962890625001	1061.951416015625	-909.856140136719	-501.9715270996095	1083.337768554688	-1053.57568359375	-500.3204650878907	1052.821899414063	-1082.256225585938	-505.2098388671876	1050.5234375	-1026.889770507813	-293.5587768554688	802.5043945312502	-1227.884643554688	-244.6768035888672	735.1336669921876	-1223.938354492188	-197.6203308105469	750.0442504882814	-1222.6083984375	-257.3045349121094	678.1179809570314	-1205.645629882813	-196.2837677001954	541.8867797851564	-1174.219848632813	-182.2266998291016	536.4962768554689	-1044.571411132813	-227.7520141601563	330.3713684082032	-1071.336669921875	-270.8574218750001	286.7437744140626	-1136.891723632813	-243.9078369140626	280.4589843750001	-1099.115844726563	-279.1079406738282	217.1579895019532	-1055.894653320313	-377.5068664550782	120.5575180053711	-1089.445678710938	-443.482147216797	98.432975769043	-1033.119873046875	-230.7346801757813	58.16563796997072	-1054.767456054688	-243.9530029296876	43.34302139282227	-1102.677124023438	-348.1222534179688	136.8345031738282	-1004.843505859375	-111.873893737793	840.7208251953127	-846.0654296875002	-45.15581130981446	846.6884765625002	-852.2895507812502	-29.96003532409669	876.0097656250002	-861.152038574219	6.431899547576906	783.155456542969	-866.1213378906252	55.54942703247072	740.6488647460939	-870.7052001953127	77.3804397583008	751.8958129882814	-998.474304199219	180.1361541748047	666.9844360351564	-896.2803955078127	181.0526733398438	565.0818481445314	-866.3858032226565	215.683334350586	588.0754394531251	-888.1987304687502	243.7058410644532	558.1703491210939	-930.6837158203127	307.0733337402344	373.5000610351563	-897.5842285156252	317.4604187011719	399.9356689453126	-985.2998657226565	287.7370910644532	300.7785339355469	-956.9143066406252	458.0271301269532	452.650115966797	-945.3052978515627	455.7969970703126	450.4359436035157	-906.921813964844	456.3542480468751	417.9930114746095	-861.0699462890627	
591	2.95	-368.3589477539063	1798.625244140625	-1046.5712890625	-503.0182189941407	1687.248657226563	-1120.767944335938	-508.2566528320314	1675.265747070313	-974.3138427734377	-542.7929077148439	1531.05322265625	-1064.909057617188	-508.2558593750001	1195.503662109375	-1059.951416015625	nan	nan	nan	-407.1735839843751	1548.353637695313	-1231.283569335938	-235.5285949707032	1518.453002929688	-1340.737915039063	-207.4375457763672	1550.072387695313	-1314.398681640625	-167.1398010253907	1521.562744140625	-1349.736572265625	-102.8768844604492	1534.351928710938	-1347.4287109375	-90.19641876220705	1466.922485351563	-1320.595458984375	189.965576171875	1587.83251953125	-1239.94677734375	190.4944152832032	1597.945068359375	-1319.4990234375	285.8439331054688	1621.428466796875	-1249.603759765625	-400.8966674804689	1533.16064453125	-894.5032958984377	-242.1205291748047	1509.267211914063	-784.3445434570315	-218.3026733398438	1539.689697265625	-815.467468261719	-172.9449462890625	1518.3974609375	-780.8071899414065	-107.4713211059571	1532.43798828125	-788.9957275390627	-94.8566360473633	1459.873901367188	-816.0921020507815	169.26171875	1582.476684570313	-901.851989746094	182.0601501464844	1600.494506835938	-825.375427246094	265.5235290527344	1610.888916015625	-909.0227050781252	-289.1578979492188	1026.452392578125	-1186.7939453125	-308.7721252441407	1059.906860351563	-909.5886230468752	-502.3242797851564	1081.266723632813	-1053.461059570313	-500.8829956054689	1050.9833984375	-1082.189208984375	-505.8097229003907	1048.397094726563	-1026.864013671875	-293.5574645996094	800.9735107421877	-1228.490600585938	-243.8444366455079	733.5231933593751	-1224.68017578125	-197.6579132080079	749.4426879882814	-1223.5556640625	-256.0201721191407	676.6743164062501	-1206.230712890625	-194.6377716064454	540.7750244140626	-1175.061157226563	-180.509017944336	535.8340454101564	-1045.370239257813	-226.4615173339844	329.6047668457032	-1072.135864257813	-270.6999206542969	285.8778991699219	-1136.844604492188	-243.3774414062501	280.0065002441407	-1099.94775390625	-278.6906433105469	216.5503387451172	-1056.376831054688	-377.3255615234376	120.3031158447266	-1089.812744140625	-443.5417785644532	98.37172698974612	-1033.298461914063	-230.8374633789063	58.11952590942384	-1054.90576171875	-243.9639282226563	43.2334327697754	-1102.725341796875	-347.9044494628907	136.7772674560547	-1005.279602050781	-111.9468612670899	838.9210205078127	-846.071716308594	-45.36164855957032	845.204528808594	-852.4141235351565	-30.17830276489259	874.3240356445315	-861.1336669921877	6.446108341217043	781.7048950195315	-866.340515136719	55.74395751953126	739.5359497070314	-870.7624511718752	77.88694763183595	750.5678710937501	-998.2752685546877	180.5311584472657	665.9443359375001	-896.161804199219	181.4836120605469	563.9272460937501	-866.5552368164065	216.0740661621094	587.1130371093751	-888.4390258789065	244.203353881836	557.3220214843751	-930.7998657226565	307.7579956054688	372.4570312500001	-897.959899902344	317.4040527343751	399.2940368652345	-985.5913085937502	288.7194824218751	299.7481384277344	-957.4199829101565	458.5787658691407	452.0826416015626	-945.3228759765627	456.4446716308595	449.8326721191407	-907.1565551757815	456.9961547851564	417.4714660644532	-861.2226562500002	
592	2.955	-368.6885375976563	1796.662475585938	-1047.230712890625	-501.8654785156251	1683.387329101563	-1120.759887695313	-508.2888793945314	1672.7939453125	-974.4825439453127	-542.6014404296876	1529.173217773438	-1065.185302734375	-508.5526733398439	1193.643920898438	-1059.835693359375	nan	nan	nan	-407.149383544922	1546.195678710938	-1231.536254882813	-235.5377960205079	1516.711059570313	-1341.177734375	-207.4089050292969	1548.205200195313	-1314.6845703125	-166.5010833740235	1519.511108398438	-1349.744750976563	-103.1919097900391	1532.8525390625	-1347.588745117188	-90.32717132568361	1465.118774414063	-1321.045166015625	190.0742492675782	1586.373413085938	-1240.17724609375	190.632308959961	1596.39697265625	-1319.593872070313	284.6261291503907	1619.873657226563	-1249.54931640625	-400.721160888672	1531.368286132813	-894.661071777344	-242.2286529541016	1507.426879882813	-784.5838623046877	-218.0738983154297	1537.869018554688	-815.7147216796877	-172.9293365478516	1516.794311523438	-780.9819335937502	-107.5443878173828	1530.606079101563	-789.0446777343752	-94.8569793701172	1458.148803710938	-816.2336425781252	169.4673309326172	1580.988891601563	-902.204284667969	182.0216064453125	1599.049682617188	-825.639831542969	265.5077819824219	1609.360717773438	-909.3516235351565	-289.4555664062501	1024.632568359375	-1186.615966796875	-309.2940979003907	1057.861938476563	-909.196472167969	-502.730926513672	1079.250122070313	-1053.38818359375	-501.2822570800782	1048.711303710938	-1082.132202148438	-506.0709533691407	1046.33544921875	-1026.736694335938	-292.9590454101563	799.341491699219	-1228.71044921875	-242.9683685302735	732.5421142578126	-1225.103149414063	-196.9344329833985	748.3510742187501	-1224.21240234375	-254.611312866211	675.1705932617189	-1206.609008789063	-192.3544921875001	539.6166381835939	-1175.555297851563	-178.668441772461	534.7011718750001	-1046.179931640625	-225.4588165283204	328.8263244628907	-1072.721923828125	-269.3427734375001	285.4370422363282	-1138.013305664063	-242.5440521240235	278.9393615722657	-1100.35546875	-278.1450805664063	216.0681152343751	-1056.890747070313	-377.1887207031251	120.2462310791016	-1090.092041015625	-443.4841308593751	98.38246917724612	-1033.52587890625	-230.7147979736329	58.03957748413087	-1055.05126953125	-243.9629974365235	43.21209335327149	-1102.837280273438	-347.7205505371094	136.8908081054688	-1005.708923339844	-112.0198669433594	837.2911376953127	-846.041442871094	-45.57870864868165	843.4221801757815	-852.4551391601565	-30.11324501037598	873.0501708984377	-860.8702392578127	6.44798517227173	780.1831665039065	-866.3113403320315	55.90588760375978	738.3184204101564	-870.7673950195315	78.59553527832033	749.6887817382814	-998.225036621094	180.9002075195313	665.0725708007814	-896.3825683593752	182.0047760009766	563.1714477539064	-866.463073730469	216.4452056884766	586.0535278320314	-888.4400024414065	244.7730712890626	556.2993164062501	-930.861999511719	308.5050354003907	371.7110595703126	-898.215026855469	318.2196350097657	398.4680480957032	-985.6595458984377	289.4019775390626	298.9870605468751	-957.5903320312502	458.8968505859376	450.991424560547	-945.3138427734377	455.3785705566407	447.7481079101564	-906.9974365234377	457.5780029296876	416.7868957519532	-861.3667602539065	
593	2.96	-368.2203369140626	1794.944580078125	-1047.175170898438	-502.2131652832032	1681.980102539063	-1121.177490234375	-508.138641357422	1671.48876953125	-974.8300781250002	-542.6392211914064	1527.349243164063	-1065.388061523438	-509.0061340332032	1191.755859375	-1059.775268554688	nan	nan	nan	-406.7279357910157	1544.274780273438	-1231.730590820313	-235.4101257324219	1514.557861328125	-1341.372192382813	-207.2461242675782	1546.121948242188	-1314.886962890625	-167.0909729003907	1517.6064453125	-1350.145874023438	-103.1828002929688	1531.08251953125	-1347.960571289063	-90.12894439697267	1463.289794921875	-1321.066528320313	190.0744171142578	1584.796997070313	-1240.279296875	190.4548492431641	1594.877807617188	-1319.740234375	284.6757812500001	1618.082275390625	-1249.60546875	-400.6847534179689	1529.619140625	-894.939392089844	-242.2310333251954	1505.919311523438	-784.785583496094	-218.4713745117188	1536.282104492188	-816.117858886719	-173.0387573242188	1515.251098632813	-781.2252197265627	-107.6629943847657	1529.012084960938	-789.4082031250002	-94.92027282714845	1456.524169921875	-816.4826660156252	169.4299926757813	1578.659057617188	-901.9959716796877	181.9767150878907	1597.3486328125	-825.8085937500002	265.4805908203126	1607.869140625	-909.5049438476565	-290.6635131835938	1022.325134277344	-1185.40625	-309.7341308593751	1055.729370117188	-909.0620727539065	-503.0735778808595	1077.105590820313	-1053.294189453125	-501.571990966797	1046.884033203125	-1082.19677734375	-506.1437377929689	1044.363037109375	-1026.761352539063	-292.6500244140626	797.7631835937502	-1229.18994140625	-242.2581024169922	731.1531372070314	-1225.733764648438	-196.2300567626954	747.0024414062501	-1224.760864257813	-253.8367309570313	673.7518310546876	-1207.470336914063	-190.393539428711	538.5661621093751	-1176.518920898438	-176.8746032714844	533.8047485351564	-1046.80810546875	-224.2695312500001	327.9249877929688	-1073.374267578125	-269.1510314941407	284.7619628906251	-1138.321166992188	-241.7572021484376	278.1778259277344	-1100.96337890625	-277.4411926269532	215.3051147460938	-1057.5400390625	-377.1317749023438	120.1130523681641	-1090.411987304688	-443.4704589843751	98.3305358886719	-1033.64501953125	-230.6726837158204	57.87432861328126	-1055.170776367188	-243.7439727783204	42.98796844482423	-1102.9091796875	-347.5398559570313	136.8955383300782	-1006.058471679688	-112.0812301635742	835.6560058593752	-846.0779418945315	-45.52205276489259	842.1149902343752	-852.2964477539065	-30.41692352294923	871.5630493164065	-860.9462890625002	6.561445713043215	778.9069824218752	-866.341003417969	56.0112762451172	736.9276733398439	-870.7103271484377	78.17781066894533	748.5276489257814	-998.2751464843752	180.9706268310547	664.1062011718751	-896.4110107421877	182.4707336425782	562.1473999023439	-866.6712646484377	216.8096160888672	585.3817749023439	-888.4965820312502	244.9488525390626	555.5192260742189	-931.164733886719	309.3063659667969	370.9780578613282	-898.368835449219	318.8009033203126	397.5371093750001	-985.891784667969	290.3057250976563	298.1334533691407	-957.586364746094	459.8181762695314	451.1677246093751	-945.649353027344	457.4351501464845	448.8502197265626	-907.4045410156252	458.2156982421876	416.1909484863282	-861.540954589844	
